HIERARCHY
ROOT hip
{
  OFFSET 0 0 0
  CHANNELS 6 Xposition Yposition Zposition Zrotation Yrotation Xrotation
  JOINT abdomen
  {
    OFFSET 0 20.6881 -0.73152
    CHANNELS 3 Zrotation Xrotation Yrotation
    JOINT chest
    {
      OFFSET 0 11.7043 -0.48768
      CHANNELS 3 Zrotation Xrotation Yrotation
      JOINT neck
      {
        OFFSET 0 22.1894 -2.19456
        CHANNELS 3 Zrotation Xrotation Yrotation
        JOINT head
        {
          OFFSET -0.24384 7.07133 1.2192
          CHANNELS 3 Zrotation Xrotation Yrotation
          JOINT leftEye
          {
            OFFSET 4.14528 8.04674 8.04672
            CHANNELS 3 Zrotation Xrotation Yrotation
            End Site
            {
              OFFSET 1 0 0
            }
          }
          JOINT rightEye
          {
            OFFSET -3.6576 8.04674 8.04672
            CHANNELS 3 Zrotation Xrotation Yrotation
            End Site
            {
              OFFSET 1 0 0
            }
          }
        }
      }
      JOINT rCollar
      {
        OFFSET -2.68224 19.2634 -4.8768
        CHANNELS 3 Zrotation Xrotation Yrotation
        JOINT rShldr
        {
          OFFSET -8.77824 -1.95073 1.46304
          CHANNELS 3 Zrotation Xrotation Yrotation
          JOINT rForeArm
          {
            OFFSET -28.1742 -1.7115 0.48768
            CHANNELS 3 Zrotation Xrotation Yrotation
            JOINT rHand
            {
              OFFSET -22.5879 0.773209 7.07136
              CHANNELS 3 Zrotation Xrotation Yrotation
              JOINT rThumb1
              {
                OFFSET -1.2192 -0.487915 3.41376
                CHANNELS 3 Zrotation Xrotation Yrotation
                JOINT rThumb2
                {
                  OFFSET -3.37035 -0.52449 3.41376
                  CHANNELS 3 Zrotation Xrotation Yrotation
                  End Site
                  {
                    OFFSET -1.78271 -1.18214 1.43049
                  }
                }
              }
              JOINT rIndex1
              {
                OFFSET -7.75947 0.938293 5.60832
                CHANNELS 3 Zrotation Xrotation Yrotation
                JOINT rIndex2
                {
                  OFFSET -2.54057 -0.884171 1.56538
                  CHANNELS 3 Zrotation Xrotation Yrotation
                  End Site
                  {
                    OFFSET -1.62519 -0.234802 1.16502
                  }
                }
              }
              JOINT rMid1
              {
                OFFSET -8.24714 1.18213 3.41376
                CHANNELS 3 Zrotation Xrotation Yrotation
                JOINT rMid2
                {
                  OFFSET -3.10165 -0.590103 1.0647
                  CHANNELS 3 Zrotation Xrotation Yrotation
                  End Site
                  {
                    OFFSET -2.48547 -0.328903 0.83742
                  }
                }
              }
              JOINT rRing1
              {
                OFFSET -8.82822 0.546677 1.51678
                CHANNELS 3 Zrotation Xrotation Yrotation
                JOINT rRing2
                {
                  OFFSET -2.60934 -0.819778 -0.0198488
                  CHANNELS 3 Zrotation Xrotation Yrotation
                  End Site
                  {
                    OFFSET -2.33842 -0.294052 0.168128
                  }
                }
              }
              JOINT rPinky1
              {
                OFFSET -8.27202 -0.0477905 -0.4584
                CHANNELS 3 Zrotation Xrotation Yrotation
                JOINT rPinky2
                {
                  OFFSET -1.82734 -0.647385 -0.700984
                  CHANNELS 3 Zrotation Xrotation Yrotation
                  End Site
                  {
                    OFFSET -1.69225 -0.51767 -0.607171
                  }
                }
              }
            }
          }
        }
      }
      JOINT lCollar
      {
        OFFSET 2.68224 19.2634 -4.8768
        CHANNELS 3 Zrotation Xrotation Yrotation
        JOINT lShldr
        {
          OFFSET 8.77824 -1.95073 1.46304
          CHANNELS 3 Zrotation Xrotation Yrotation
          JOINT lForeArm
          {
            OFFSET 28.1742 -1.7115 0.48768
            CHANNELS 3 Zrotation Xrotation Yrotation
            JOINT lHand
            {
              OFFSET 22.5879 0.773209 7.07136
              CHANNELS 3 Zrotation Xrotation Yrotation
              JOINT lThumb1
              {
                OFFSET 1.2192 -0.487915 3.41376
                CHANNELS 3 Zrotation Xrotation Yrotation
                JOINT lThumb2
                {
                  OFFSET 3.37035 -0.52449 3.41376
                  CHANNELS 3 Zrotation Xrotation Yrotation
                  End Site
                  {
                    OFFSET 1.78271 -1.18214 1.43049
                  }
                }
              }
              JOINT lIndex1
              {
                OFFSET 7.75947 0.938293 5.60832
                CHANNELS 3 Zrotation Xrotation Yrotation
                JOINT lIndex2
                {
                  OFFSET 2.54057 -0.884171 1.56538
                  CHANNELS 3 Zrotation Xrotation Yrotation
                  End Site
                  {
                    OFFSET 1.62519 -0.234802 1.16502
                  }
                }
              }
              JOINT lMid1
              {
                OFFSET 8.24714 1.18213 3.41376
                CHANNELS 3 Zrotation Xrotation Yrotation
                JOINT lMid2
                {
                  OFFSET 3.10165 -0.590103 1.0647
                  CHANNELS 3 Zrotation Xrotation Yrotation
                  End Site
                  {
                    OFFSET 2.48547 -0.328903 0.83742
                  }
                }
              }
              JOINT lRing1
              {
                OFFSET 8.82822 0.546677 1.51678
                CHANNELS 3 Zrotation Xrotation Yrotation
                JOINT lRing2
                {
                  OFFSET 2.60934 -0.819778 -0.0198488
                  CHANNELS 3 Zrotation Xrotation Yrotation
                  End Site
                  {
                    OFFSET 2.33842 -0.294052 0.168128
                  }
                }
              }
              JOINT lPinky1
              {
                OFFSET 8.27202 -0.0477905 -0.4584
                CHANNELS 3 Zrotation Xrotation Yrotation
                JOINT lPinky2
                {
                  OFFSET 1.82734 -0.647385 -0.700984
                  CHANNELS 3 Zrotation Xrotation Yrotation
                  End Site
                  {
                    OFFSET 1.69225 -0.51767 -0.607171
                  }
                }
              }
            }
          }
        }
      }
    }
  }
  JOINT rButtock
  {
    OFFSET -8.77824 4.35084 1.2192
    CHANNELS 3 Zrotation Xrotation Yrotation
    JOINT rThigh
    {
      OFFSET 0 -1.70687 -2.19456
      CHANNELS 3 Zrotation Xrotation Yrotation
      JOINT rShin
      {
        OFFSET 0 -36.8199 0.73152
        CHANNELS 3 Zrotation Xrotation Yrotation
        JOINT rFoot
        {
          OFFSET 0.73152 -45.1104 -5.12064
          CHANNELS 3 Zrotation Xrotation Yrotation
          End Site
          {
            OFFSET -1.1221 -3.69964 12.103
          }
        }
      }
    }
  }
  JOINT lButtock
  {
    OFFSET 8.77824 4.35084 1.2192
    CHANNELS 3 Zrotation Xrotation Yrotation
    JOINT lThigh
    {
      OFFSET 0 -1.70687 -2.19456
      CHANNELS 3 Zrotation Xrotation Yrotation
      JOINT lShin
      {
        OFFSET 0 -36.8199 0.73152
        CHANNELS 3 Zrotation Xrotation Yrotation
        JOINT lFoot
        {
          OFFSET -0.73152 -45.1104 -5.12064
          CHANNELS 3 Zrotation Xrotation Yrotation
          End Site
          {
            OFFSET 1.1221 -3.69964 12.103
          }
        }
      }
    }
  }
}
MOTION
Frames:	7
Frame Time:	0.00833333
4.64714 84.8033 42.5098 0.0 0.0 0.0 -0.305087 -0.00406096 -0.00879772 -0.0843764 -0.0066655 -0.0146211 2.8411e-15 1.59028e-15 1.86361e-17 8.60054e-15 9.54166e-15 5.43552e-17 -0.0 0.0 0.0 -0.0 0.0 0.0 1.58891e-15 -1.66948e-17 1.49089e-16 3.13897e-14 -6.83322e-17 9.93923e-16 5.23301e-13 -1.64594e-13 -1.59028e-14 5.99827e-12 1.16637e-13 6.04305e-14 1.41463e-11 -1.07968e-13 1.11319e-13 2.44175e-11 -1.87653e-13 1.92424e-13 1.41483e-11 -1.09332e-13 1.04958e-13 7.73091 5.47488 0.417314 1.41451e-11 -1.08437e-13 1.08139e-13 2.90554 0.965183 0.102902 1.41521e-11 -1.07841e-13 1.07344e-13 10.2786 0.731801 0.0259123 1.41386e-11 -1.03766e-13 1.145e-13 2.22167 -0.733487 -0.20892 1.29356e-15 -1.63066e-17 -1.49089e-16 2.90557e-14 -2.54693e-16 -3.97569e-16 5.22207e-13 1.48095e-13 1.27222e-14 5.99927e-12 -2.01145e-13 4.45278e-14 1.41519e-11 -1.13972e-13 1.11319e-13 2.44489e-11 -1.94014e-13 1.94014e-13 1.41491e-11 -1.13307e-13 1.17681e-13 -7.73091 5.47488 -0.417314 1.41538e-11 -1.14301e-13 1.11319e-13 -2.90554 0.965183 -0.102902 1.4154e-11 -1.14301e-13 1.12115e-13 -10.2786 0.731801 -0.0259123 1.41664e-11 -1.08536e-13 1.04958e-13 -2.22167 -0.733487 0.20892 -2.03217e-16 0.0 -3.88251e-19 0.199377 -2.70344 -0.0288717 -0.00656359 -0.653368 -0.0573638 -0.429995 3.35781 0.115503 2.03217e-16 0.0 3.88251e-19 -0.667238 -3.93836 0.0583941 0.00310865 1.58344 0.024167 0.437799 2.35596 -0.096689
5.69738 83.1532 41.7713 5.4818 -2.0705 5.4604 -2.48999 -2.87607 -2.38838 0.733958 -1.18443 -0.650477 -0.712203 4.29001 -2.20872 -0.765144 -0.540224 -4.48182 -0.0 0.0 0.0 -0.0 0.0 0.0 3.47612e-14 -4.87897e-14 -2.51847e-14 19.0637 14.5682 0.331323 -13.1368 -10.1699 13.9626 0.0453287 -4.73516 -0.657356 -1.94962e-10 1.26293e-09 -1.07333e-10 -3.34536e-10 2.17207e-09 -1.87513e-10 -1.94959e-10 1.26293e-09 -1.07344e-10 7.73091 5.47488 0.417314 -1.94962e-10 1.26293e-09 -1.07337e-10 2.90554 0.965183 0.102902 -1.94954e-10 1.26293e-09 -1.07339e-10 10.2786 0.731801 0.0259123 -1.94967e-10 1.26293e-09 -1.07332e-10 2.22167 -0.733487 -0.20892 3.45307e-14 -4.8788e-14 -2.54409e-14 -21.1337 12.3047 1.91493 22.7378 -20.6266 -14.9734 -0.000597287 -0.611056 0.0858698 -1.55337e-10 2.81151e-09 6.43765e-10 -2.68744e-10 4.85601e-09 1.11111e-09 -1.55339e-10 2.81151e-09 6.43772e-10 -7.73091 5.47488 -0.417314 -1.55335e-10 2.81151e-09 6.43764e-10 -2.90554 0.965183 -0.102902 -1.55335e-10 2.81151e-09 6.43765e-10 -10.2786 0.731801 -0.0259123 -1.55326e-10 2.81151e-09 6.43756e-10 -2.22167 -0.733487 0.20892 -2.03217e-16 0.0 -3.88251e-19 -4.61725 -5.24337 1.0589 0.017205 7.39229 0.109662 -1.21629 -0.633437 -5.60585 2.03217e-16 0.0 3.88251e-19 -2.04457 -6.74187 -2.16778 0.00657241 5.92752 0.00531275 0.631296 -0.0881919 3.81594
6.27189 83.1517 41.8619 5.7082 -2.1342 5.378 -5.05091 -5.90719 -4.93733 1.57429 -2.42474 -1.32693 -1.08934 8.82633 -4.5885 -1.67971 -1.12661 -9.22994 -0.0 0.0 0.0 -0.0 0.0 0.0 7.27491e-14 -1.01985e-13 -5.33519e-14 38.9629 30.019 0.803894 -21.6925 -18.9994 30.1305 -0.026775 -9.77371 -1.37229 -4.35071e-10 2.6842e-09 -2.2118e-10 -7.4686e-10 4.61692e-09 -3.86592e-10 -4.35065e-10 2.6842e-09 -2.21196e-10 7.73091 5.47488 0.417314 -4.35068e-10 2.6842e-09 -2.21186e-10 2.90554 0.965183 0.102902 -4.35059e-10 2.6842e-09 -2.21188e-10 10.2786 0.731801 0.0259123 -4.35071e-10 2.68421e-09 -2.21181e-10 2.22167 -0.733487 -0.20892 7.25859e-14 -1.01982e-13 -5.35632e-14 -44.4204 25.2664 4.20824 33.1728 -37.5301 -37.3536 0.000849926 -1.2245 0.172115 -3.44751e-10 5.94312e-09 1.35934e-09 -5.96396e-10 1.02648e-08 2.34615e-09 -3.44753e-10 5.94312e-09 1.35935e-09 -7.73091 5.47488 -0.417314 -3.4475e-10 5.94313e-09 1.35934e-09 -2.90554 0.965183 -0.102902 -3.4475e-10 5.94312e-09 1.35934e-09 -10.2786 0.731801 -0.0259123 -3.44744e-10 5.94312e-09 1.35933e-09 -2.22167 -0.733487 0.20892 -2.03217e-16 0.0 -3.88251e-19 -9.56175 -7.89686 2.24412 -0.00980829 15.8561 0.296064 -2.92096 -4.79052 -11.7208 2.03217e-16 0.0 3.88251e-19 -3.70995 -9.6973 -4.58218 0.0131802 10.5365 -0.0152902 1.20347 -2.65216 7.98419
6.86977 83.1606 41.9712 5.9089 -2.0574 5.251 -7.58025 -8.56019 -7.21935 2.29209 -3.53821 -1.92544 -1.12536 12.7926 -6.77656 -2.54648 -1.58108 -13.4501 -0.0 0.0 0.0 -0.0 0.0 0.0 1.01106e-13 -1.46336e-13 -7.58523e-14 56.5218 43.6974 1.33064 -25.0272 -23.0865 45.7476 -0.198643 -14.1979 -2.02729 -6.1318e-10 3.78901e-09 -3.22221e-10 -1.05244e-09 6.51659e-09 -5.62924e-10 -6.13173e-10 3.789e-09 -3.22241e-10 7.73091 5.47488 0.417314 -6.13175e-10 3.789e-09 -3.22227e-10 2.90554 0.965183 0.102902 -6.13166e-10 3.789e-09 -3.2223e-10 10.2786 0.731801 0.0259123 -6.13177e-10 3.78901e-09 -3.22224e-10 2.22167 -0.733487 -0.20892 1.01005e-13 -1.46331e-13 -7.60246e-14 -66.3816 36.7278 7.00924 30.6252 -41.8639 -63.9138 0.00370529 -1.83315 0.257727 -4.94314e-10 8.43475e-09 1.93107e-09 -8.55131e-10 1.45684e-08 3.33295e-09 -4.94315e-10 8.43475e-09 1.93108e-09 -7.73091 5.47488 -0.417314 -4.94313e-10 8.43477e-09 1.93107e-09 -2.90554 0.965183 -0.102902 -4.94314e-10 8.43475e-09 1.93107e-09 -10.2786 0.731801 -0.0259123 -4.94311e-10 8.43475e-09 1.93106e-09 -2.22167 -0.733487 0.20892 -2.03217e-16 0.0 -3.88251e-19 -13.957 -10.3094 3.274 -0.0858256 23.4829 0.480792 -5.162 -8.24343 -17.2306 2.03217e-16 0.0 3.88251e-19 -5.46507 -12.2807 -6.72953 0.0222756 14.6157 -0.033548 2.0153 -4.87447 11.6839
7.38851 83.171 42.0363 6.0863 -2.3148 5.2431 -9.50932 -10.327 -8.76344 2.75925 -4.33627 -2.32606 -1.04084 15.4087 -8.33793 -3.09756 -1.74819 -16.3448 -0.0 0.0 0.0 -0.0 0.0 0.0 1.05385e-13 -1.68572e-13 -8.41853e-14 68.8976 52.9548 1.58434 -25.8391 -23.0287 56.1088 -0.372327 -17.0938 -2.47705 -6.36291e-10 4.10263e-09 -3.91246e-10 -1.09117e-09 7.05332e-09 -6.8239e-10 -6.36283e-10 4.10263e-09 -3.91269e-10 7.73091 5.47488 0.417314 -6.36285e-10 4.10263e-09 -3.91253e-10 2.90554 0.965183 0.102902 -6.36276e-10 4.10262e-09 -3.91256e-10 10.2786 0.731801 0.0259123 -6.36286e-10 4.10263e-09 -3.9125e-10 2.22167 -0.733487 -0.20892 1.05333e-13 -1.68567e-13 -8.43344e-14 -82.9351 44.5862 10.0008 28.3771 -37.4154 -79.4034 0.0072464 -2.42981 0.341694 -5.4425e-10 9.32641e-09 2.1432e-09 -9.41574e-10 1.61091e-08 3.69915e-09 -5.44251e-10 9.32641e-09 2.14321e-09 -7.73091 5.47488 -0.417314 -5.44249e-10 9.32644e-09 2.1432e-09 -2.90554 0.965183 -0.102902 -5.4425e-10 9.32641e-09 2.1432e-09 -10.2786 0.731801 -0.0259123 -5.44248e-10 9.32641e-09 2.14319e-09 -2.22167 -0.733487 0.20892 -2.03217e-16 0.0 -3.88251e-19 -17.193 -12.1331 3.88089 -0.175978 29.0176 0.626043 -7.02718 -10.3337 -21.0065 2.03217e-16 0.0 3.88251e-19 -6.95371 -13.9986 -8.11183 0.0309929 17.3705 -0.0447147 2.71136 -6.35205 14.1597
7.93457 83.1897 42.116 6.2779 -2.4249 5.18 -10.3555 -10.891 -9.21232 2.89223 -4.69374 -2.44407 -1.14176 16.2012 -8.93323 -3.12995 -1.59667 -17.4095 -0.0 0.0 0.0 -0.0 0.0 0.0 5.97972e-14 -1.61786e-13 -6.84339e-14 74.571 56.0498 0.997372 -25.8476 -21.9443 58.7295 -0.432156 -17.8294 -2.59605 -3.17042e-10 2.96185e-09 -4.35777e-10 -5.39568e-10 5.08222e-09 -7.56213e-10 -3.17036e-10 2.96185e-09 -4.35798e-10 7.73091 5.47488 0.417314 -3.17038e-10 2.96185e-09 -4.35783e-10 2.90554 0.965183 0.102902 -3.1703e-10 2.96185e-09 -4.35785e-10 10.2786 0.731801 0.0259123 -3.1704e-10 2.96185e-09 -4.35778e-10 2.22167 -0.733487 -0.20892 5.97792e-14 -1.61784e-13 -6.8585e-14 -90.4027 47.5885 12.1465 28.3835 -33.9483 -82.5009 0.011189 -3.04753 0.428679 -3.96825e-10 7.73809e-09 1.77545e-09 -6.86875e-10 1.33684e-08 3.06494e-09 -3.96826e-10 7.7381e-09 1.77546e-09 -7.73091 5.47488 -0.417314 -3.96824e-10 7.73812e-09 1.77545e-09 -2.90554 0.965183 -0.102902 -3.96827e-10 7.73809e-09 1.77545e-09 -10.2786 0.731801 -0.0259123 -3.96823e-10 7.73809e-09 1.77544e-09 -2.22167 -0.733487 0.20892 -2.03217e-16 0.0 -3.88251e-19 -18.9211 -13.1208 3.85071 -0.227582 31.6053 0.685709 -7.62428 -10.8226 -22.1648 2.03217e-16 0.0 3.88251e-19 -7.85149 -14.5462 -8.3429 0.0362905 18.2806 -0.0448703 2.93267 -6.87188 14.8599
8.46852 83.195 42.1899 6.4642 -2.5431 5.123 -10.3819 -10.6061 -8.86769 2.79265 -4.73682 -2.35974 -1.44842 15.705 -8.81097 -2.7852 -1.21904 -17.1661 -0.0 0.0 0.0 -0.0 0.0 0.0 -2.06407e-14 -1.34179e-13 -3.56818e-14 75.4549 54.7327 -0.205296 -25.3407 -20.9459 56.1025 -0.389354 -17.0245 -2.47027 2.40779e-10 7.98721e-10 -4.61845e-10 4.23369e-10 1.34836e-09 -7.95816e-10 2.40782e-10 7.98723e-10 -4.61861e-10 7.73091 5.47488 0.417314 2.4078e-10 7.98722e-10 -4.61848e-10 2.90554 0.965183 0.102902 2.40786e-10 7.98719e-10 -4.6185e-10 10.2786 0.731801 0.0259123 2.40778e-10 7.98722e-10 -4.61841e-10 2.22167 -0.733487 -0.20892 -2.06365e-14 -1.34179e-13 -3.58527e-14 -90.7404 47.1946 13.1595 28.3981 -33.0407 -79.5194 0.0160743 -3.67848 0.517641 -1.11185e-10 4.38979e-09 9.9714e-10 -1.93262e-10 7.58936e-09 1.72242e-09 -1.11186e-10 4.3898e-09 9.9715e-10 -7.73091 5.47488 -0.417314 -1.11184e-10 4.38981e-09 9.97138e-10 -2.90554 0.965183 -0.102902 -1.11188e-10 4.38979e-09 9.97136e-10 -10.2786 0.731801 -0.0259123 -1.1118e-10 4.38979e-09 9.97125e-10 -2.22167 -0.733487 0.20892 -2.03217e-16 0.0 -3.88251e-19 -19.5971 -13.5139 3.35943 -0.234709 32.0892 0.673509 -7.18194 -10.236 -21.4215 2.03217e-16 0.0 3.88251e-19 -8.28841 -14.2653 -7.74028 0.0386594 17.8727 -0.0369846 2.75146 -6.72792 14.2817
